<svg width="480" height="403" viewBox="0 0 480 403" fill="none" xmlns="http://www.w3.org/2000/svg">
<g id="undraw_my_current_location_om7g 1 (2) 1" clip-path="url(#clip0)">
<g id="undraw my current location om7g 1">
<g id="whol">
<path id="Vector" d="M367.449 366.838C381.565 366.838 393.007 341.51 393.007 310.266C393.007 279.022 381.565 253.694 367.449 253.694C353.333 253.694 341.89 279.022 341.89 310.266C341.89 341.51 353.333 366.838 367.449 366.838Z" fill="#3F3D56"/>
<path id="Vector 2" d="M365.088 402.865C375.325 336.241 365.191 269.856 365.088 269.195L363.097 269.56C363.2 270.219 373.275 336.255 363.097 402.506L365.088 402.865Z" fill="#6C63FF"/>
<path id="Vector 3" d="M344.947 298.101L343.994 300.034L367.106 313.445L368.059 311.512L344.947 298.101Z" fill="#6C63FF"/>
<path id="Vector 4" d="M391.498 304.819L368.389 318.237L369.343 320.169L392.451 306.751L391.498 304.819Z" fill="#6C63FF"/>
<path id="Vector 5" d="M428.858 331.381C456.466 331.381 478.847 281.843 478.847 220.733C478.847 159.624 456.466 110.085 428.858 110.085C401.25 110.085 378.869 159.624 378.869 220.733C378.869 281.843 401.25 331.381 428.858 331.381Z" fill="#6F6D84"/>
<path id="Vector 6" d="M423.29 401.675C443.284 271.536 423.492 141.871 423.29 140.577L421.298 140.942C421.5 142.234 441.235 271.55 421.298 401.315L423.29 401.675Z" fill="#6C63FF"/>
<path id="Vector 7" d="M384.391 197.863L383.439 199.795L428.644 226.025L429.596 224.093L384.391 197.863Z" fill="#6C63FF"/>
<path id="Vector 8" d="M476.351 211.003L431.152 237.247L432.106 239.178L477.304 212.934L476.351 211.003Z" fill="#6C63FF"/>
<g id="map">
<path id="Vector 9" d="M71.3157 222.815C70.8966 222.815 70.4948 222.997 70.1984 223.318C69.902 223.64 69.7353 224.075 69.7349 224.53V367.193C69.7353 367.648 69.902 368.084 70.1984 368.405C70.4948 368.727 70.8966 368.908 71.3157 368.908H288.305C288.725 368.908 289.126 368.727 289.423 368.405C289.72 368.084 289.886 367.648 289.887 367.193V224.53C289.886 224.075 289.72 223.64 289.423 223.318C289.126 222.997 288.725 222.815 288.305 222.815H71.3157Z" fill="white"/>
<path id="Vector 10" d="M290.413 352.452H66.6964V361.493H290.413V352.452Z" fill="#E6E6E6"/>
<path id="Vector 11" d="M112.142 233.271H103.809V357.977H112.142V233.271Z" fill="#E6E6E6"/>
<path id="Vector 12" d="M204.737 233.271H196.404V380.507H204.737V233.271Z" fill="#E6E6E6"/>
<path id="Vector 13" d="M259.727 233.271H251.394V310.767H259.727V233.271Z" fill="#E6E6E6"/>
<path id="Vector 14" d="M201.496 281.637H107.976V290.677H201.496V281.637Z" fill="#E6E6E6"/>
<path id="Vector 15" d="M157.051 307.251H148.717V380.507H157.051V307.251Z" fill="#E6E6E6"/>
<path id="Vector 16" d="M290.413 261.547H66.6964V270.587H290.413V261.547Z" fill="#E6E6E6"/>
<path id="Vector 17" d="M290.413 305.744H66.6964V314.784H290.413V305.744Z" fill="#E6E6E6"/>
</g>
<path id="Vector 18" d="M479.791 403H0V401.753H480L479.791 403Z" fill="#3F3D56"/>
<g id="location">
<path id="Vector 19" d="M198.781 361.258C204.663 361.258 209.43 356.087 209.43 349.707C209.43 343.328 204.663 338.156 198.781 338.156C192.901 338.156 188.133 343.328 188.133 349.707C188.133 356.087 192.901 361.258 198.781 361.258Z" fill="#6C63FF"/>
<path id="Vector 20" d="M200.058 281.086C236.336 281.086 265.745 249.182 265.745 209.828C265.745 170.474 236.336 138.571 200.058 138.571C163.781 138.571 134.371 170.474 134.371 209.828C134.371 249.182 163.781 281.086 200.058 281.086Z" fill="#6C63FF"/>
<path id="Vector 21" d="M200.701 325.664L179.948 287.208L159.196 248.752L200.272 248.484L241.349 248.216L221.025 286.94L200.701 325.664Z" fill="#6C63FF"/>
<path id="Vector 22" d="M200.585 234.946C213.601 234.946 224.153 223.499 224.153 209.379C224.153 195.26 213.601 183.814 200.585 183.814C187.57 183.814 177.018 195.26 177.018 209.379C177.018 223.499 187.57 234.946 200.585 234.946Z" fill="white"/>
<path id="Vector 23" d="M198.539 38.6656C198.539 38.6656 184.483 34.3705 180.326 55.2017C176.169 76.0329 179.336 86.5555 179.336 86.5555L210.713 82.5825C210.713 82.5825 219.622 45.0008 198.539 38.6656Z" fill="#2F2E41"/>
<path id="Vector 24" d="M177.51 128.89C177.51 128.89 156.893 131.118 160.565 140.147C164.237 149.177 164.237 149.973 164.237 149.973L182.353 185.029L188.229 178.39C188.229 178.39 181.619 162.721 181.619 157.675C181.619 152.629 174.764 143.865 174.764 143.865L186.76 142.803L177.51 128.89Z" fill="#FFB9B9"/>
<path id="Vector 25" d="M234.008 139.616L240.863 155.816C240.863 155.816 246.004 161.393 251.635 183.701C257.266 206.009 258.49 205.212 258.49 205.212L249.922 207.071C249.922 207.071 240.373 182.904 237.191 181.045C234.009 179.186 230.092 162.19 230.092 162.19L218.83 146.786L222.258 138.554L234.008 139.616Z" fill="#FFB9B9"/>
<path id="Vector 26" d="M225.685 121.026L236.212 142.272C236.212 142.272 222.992 135.632 221.034 150.239L209.037 140.147C209.037 140.147 192.39 145.99 182.353 143.865C182.353 143.865 185.291 133.773 174.764 129.258L198.511 126.072L197.531 120.495L199.98 115.183L225.685 121.026Z" fill="#2F2E41"/>
<path id="Vector 27" d="M183.822 180.249C183.822 180.249 177.212 179.186 178.926 185.56L182.353 198.308C182.353 198.308 177.947 211.321 184.801 208.399C191.656 205.478 196.063 187.419 196.063 187.419C196.063 187.419 199 173.609 196.063 173.609C193.125 173.609 183.822 171.485 184.801 173.609C185.781 175.734 183.822 180.249 183.822 180.249Z" fill="#2F2E41"/>
<path id="Vector 28" d="M257.756 201.494C257.756 201.494 249.187 199.104 247.228 202.822C245.27 206.54 245.759 218.757 245.759 219.022C245.759 219.288 248.697 221.944 249.677 221.944C250.656 221.944 256.776 233.894 265.1 229.645C273.423 225.397 257.756 201.494 257.756 201.494Z" fill="#2F2E41"/>
<path id="Vector 29" d="M205.487 62.3986C206.331 56.7522 202.797 51.4321 197.591 50.5159C192.387 49.5996 187.483 53.4341 186.638 59.0805C185.793 64.7269 189.328 70.0469 194.533 70.9632C199.738 71.8795 204.642 68.045 205.487 62.3986Z" fill="#FFB9B9"/>
<path id="Vector 30" d="M203.896 62.8651C203.896 62.8651 205.855 74.0191 207.569 75.6126C209.282 77.206 194.594 79.596 194.594 79.596C194.594 79.596 196.797 71.8945 194.104 67.9109C191.411 63.9273 203.896 62.8651 203.896 62.8651Z" fill="#FFB9B9"/>
<path id="Vector 31" d="M229.602 126.072C227.935 126.072 223.69 125.323 218.93 124.358C214.813 123.525 210.306 122.534 206.751 121.732C202.945 120.872 200.224 120.229 200.224 120.229C200.224 120.229 199.245 126.868 196.063 126.072C193.321 125.386 185.127 94.3384 182.911 85.7575C182.749 85.1312 182.781 84.4645 183.001 83.8588C183.22 83.2532 183.616 82.7425 184.128 82.4036L195.382 74.9487L198.266 76.1437C198.266 76.1437 203.138 72.0592 205.965 71.9768C208.793 71.8946 213.689 71.0978 213.689 71.0978C213.689 71.0978 219.32 71.6289 220.299 76.1437C221.279 80.6586 221.768 108.809 225.44 113.855C229.112 118.901 234.253 126.072 229.602 126.072Z" fill="#D0CDE1"/>
<path id="Vector 32" d="M195.328 140.944C195.328 140.944 195.328 151.301 201.693 149.708C208.058 148.114 202.183 138.554 202.183 138.554L195.328 140.944Z" fill="#FFB9B9"/>
<path id="Vector 33" d="M212.954 142.006C212.954 142.006 210.751 154.222 206.1 152.363C201.448 150.504 206.1 139.616 206.1 139.616L212.954 142.006Z" fill="#FFB9B9"/>
<path id="Vector 34" opacity="0.15" d="M223.237 102.031C223.237 102.031 220.84 108.234 218.93 113.331C214.813 112.497 210.306 111.507 206.751 110.705C207.006 109.971 207.365 109.285 207.813 108.671C209.527 106.546 208.548 106.014 208.548 106.014C207.079 102.828 208.303 98.5782 208.303 98.5782C205.365 90.0804 209.772 79.4575 209.772 79.4575L223.237 102.031Z" fill="black"/>
<path id="Vector 35" d="M210.506 90.485C210.506 90.485 206.1 101.108 209.037 109.606C209.037 109.606 207.813 113.855 209.282 117.042C209.282 117.042 210.261 117.573 208.548 119.698C206.834 121.822 205.365 129.258 206.589 130.852C207.813 132.445 204.876 135.367 205.61 136.96C206.345 138.554 204.386 140.678 204.386 140.678C204.386 140.678 211.73 142.272 212.954 144.662C212.954 144.662 214.424 142.803 213.689 140.678C212.954 138.554 213.445 137.757 214.179 136.429C214.914 135.101 217.117 132.18 217.362 130.852C217.606 129.524 223.971 113.059 223.971 113.059L220.986 83.052L210.506 90.485Z" fill="#D0CDE1"/>
<path id="Vector 36" d="M185.046 83.0489L184.588 83.1391C183.951 83.2642 183.375 83.63 182.961 84.1716C182.547 84.7123 182.323 85.3948 182.328 86.0979C182.345 88.7645 182.484 93.4968 183.088 100.045C184.067 110.668 187.494 126.603 188.229 128.196C189.395 131.016 190.703 133.764 192.146 136.429C194.349 140.413 194.839 139.085 194.349 140.944C194.2 141.456 194.19 142.003 194.32 142.522C194.45 143.04 194.715 143.506 195.083 143.865C195.083 143.865 199.49 138.554 203.896 141.475C204.212 140.724 204.379 139.91 204.386 139.085C204.386 137.757 205.12 136.429 203.896 135.632C202.672 134.836 204.631 131.383 202.672 129.524C200.714 127.665 200.469 127.931 200.714 126.072C200.829 124.807 200.661 123.533 200.224 122.354L185.046 83.0489Z" fill="#D0CDE1"/>
<path id="Vector 37" d="M199.632 47.4358C199.632 47.4358 195.673 58.8178 185.972 63.5424L184.389 53.4489L199.632 47.4358Z" fill="#2F2E41"/>
<path id="Vector 38" d="M205.365 59.5453C206.109 59.5453 206.712 58.2969 206.712 56.7568C206.712 55.2168 206.109 53.9683 205.365 53.9683C204.622 53.9683 204.019 55.2168 204.019 56.7568C204.019 58.2969 204.622 59.5453 205.365 59.5453Z" fill="#FFB9B9"/>
</g>
</g>
</g>
</g>
<defs>
<clipPath id="clip0">
<rect width="480" height="403" fill="white"/>
</clipPath>
</defs>
</svg>
