<svg width="513" height="403" viewBox="0 0 513 403" fill="none" xmlns="http://www.w3.org/2000/svg">
<g id="undraw_Location_search_re_ttoj 1 1">
<g id="undraw Location search re ttoj 1">
<g id="whole">
<g id="zoom">
<path id="Vector" d="M292.105 197.055C303.648 197.055 313.006 187.589 313.006 175.912C313.006 164.236 303.648 154.77 292.105 154.77C280.561 154.77 271.203 164.236 271.203 175.912C271.203 187.589 280.561 197.055 292.105 197.055Z" fill="#E6E6E6"/>
<path id="Vector 2" d="M343.33 203.081L321.487 180.987C323.162 178.353 324.297 175.405 324.824 172.32C325.352 169.234 325.262 166.073 324.559 163.022C323.857 159.973 322.556 157.096 320.735 154.563C318.913 152.031 316.608 149.895 313.955 148.28C308.96 145.262 303.026 144.251 297.329 145.448C291.632 146.645 286.587 149.963 283.194 154.744C280.071 159.173 278.571 164.563 278.953 169.989C279.333 175.416 281.571 180.538 285.281 184.476C288.991 188.414 293.942 190.922 299.281 191.567C304.621 192.213 310.016 190.958 314.54 188.016L336.382 210.11C337.304 211.041 338.553 211.564 339.856 211.563C341.158 211.563 342.407 211.04 343.328 210.108C344.249 209.177 344.767 207.913 344.767 206.595C344.767 205.278 344.251 204.014 343.33 203.081ZM313.724 180.163C311.018 182.9 307.457 184.604 303.647 184.984C299.838 185.363 296.017 184.395 292.835 182.244C289.652 180.093 287.306 176.893 286.194 173.188C285.083 169.482 285.277 165.503 286.741 161.926C288.206 158.348 290.851 155.396 294.227 153.571C297.602 151.746 301.499 151.161 305.253 151.917C309.007 152.672 312.386 154.72 314.814 157.713C317.242 160.706 318.57 164.458 318.57 168.33C318.572 170.527 318.146 172.704 317.314 174.735C316.482 176.766 315.262 178.61 313.724 180.163Z" fill="#3F3D56"/>
</g>
<path id="Vector 3" d="M484.953 240.953C540.813 303.44 378.886 393.493 248.046 393.493C117.206 393.493 26.6853 323.718 11.1393 240.953C-26.5544 40.2775 332.298 -87.2712 248.046 88.4144C125.239 344.496 440.963 191.744 484.953 240.953Z" fill="url(#paint0_linear)"/>
<g id="dots">
<path id="Vector 4" d="M64.174 242.375C65.9043 242.375 67.307 240.957 67.307 239.206C67.307 237.457 65.9043 236.037 64.174 236.037C62.4438 236.037 61.0411 237.457 61.0411 239.206C61.0411 240.957 62.4438 242.375 64.174 242.375Z" fill="#E6E6E6"/>
<path id="Vector 5" d="M283.475 351.178C285.205 351.178 286.608 349.759 286.608 348.01C286.608 346.259 285.205 344.84 283.475 344.84C281.744 344.84 280.342 346.259 280.342 348.01C280.342 349.759 281.744 351.178 283.475 351.178Z" fill="#E6E6E6"/>
<path id="Vector 6" d="M71.5337 144.718C72.3988 144.718 73.1005 144.009 73.1005 143.134C73.1005 142.258 72.3988 141.549 71.5337 141.549C70.6685 141.549 69.9675 142.258 69.9675 143.134C69.9675 144.009 70.6685 144.718 71.5337 144.718Z" fill="#E6E6E6"/>
<path id="Vector 7" d="M208.808 299.417C209.673 299.417 210.374 298.708 210.374 297.833C210.374 296.958 209.673 296.248 208.808 296.248C207.943 296.248 207.242 296.958 207.242 297.833C207.242 298.708 207.943 299.417 208.808 299.417Z" fill="#E6E6E6"/>
<path id="Vector 8" d="M444.295 284.101C445.16 284.101 445.862 283.391 445.862 282.517C445.862 281.641 445.16 280.932 444.295 280.932C443.429 280.932 442.729 281.641 442.729 282.517C442.729 283.391 443.429 284.101 444.295 284.101Z" fill="#E6E6E6"/>
<path id="Vector 9" d="M370.672 331.108C371.538 331.108 372.239 330.398 372.239 329.523C372.239 328.648 371.538 327.939 370.672 327.939C369.807 327.939 369.106 328.648 369.106 329.523C369.106 330.398 369.807 331.108 370.672 331.108Z" fill="#E6E6E6"/>
<path id="Vector 10" d="M293.917 274.066C294.782 274.066 295.484 273.356 295.484 272.481C295.484 271.606 294.782 270.897 293.917 270.897C293.053 270.897 292.351 271.606 292.351 272.481C292.351 273.356 293.053 274.066 293.917 274.066Z" fill="#E6E6E6"/>
<path id="Vector 11" d="M194.71 117.728C195.575 117.728 196.277 117.019 196.277 116.143C196.277 115.268 195.575 114.559 194.71 114.559C193.845 114.559 193.144 115.268 193.144 116.143C193.144 117.019 193.845 117.728 194.71 117.728Z" fill="#E6E6E6"/>
<path id="Vector 12" d="M207.242 39.5588C208.106 39.5588 208.808 38.8495 208.808 37.9743C208.808 37.0992 208.106 36.3898 207.242 36.3898C206.377 36.3898 205.675 37.0992 205.675 37.9743C205.675 38.8495 206.377 39.5588 207.242 39.5588Z" fill="#E6E6E6"/>
<path id="Vector 13" d="M199.932 368.608C200.797 368.608 201.498 367.898 201.498 367.023C201.498 366.148 200.797 365.439 199.932 365.439C199.066 365.439 198.365 366.148 198.365 367.023C198.365 367.898 199.066 368.608 199.932 368.608Z" fill="#E6E6E6"/>
<path id="Vector 14" d="M122.654 335.333C123.519 335.333 124.221 334.624 124.221 333.748C124.221 332.873 123.519 332.164 122.654 332.164C121.789 332.164 121.088 332.873 121.088 333.748C121.088 334.624 121.789 335.333 122.654 335.333Z" fill="#E6E6E6"/>
<path id="Vector 15" d="M367.539 278.291C368.405 278.291 369.106 277.581 369.106 276.706C369.106 275.831 368.405 275.122 367.539 275.122C366.675 275.122 365.973 275.831 365.973 276.706C365.973 277.581 366.675 278.291 367.539 278.291Z" fill="#E6E6E6"/>
<path id="Vector 16" d="M119.571 95.07C122.167 95.07 124.27 92.9424 124.27 90.3168C124.27 87.6918 122.167 85.5635 119.571 85.5635C116.976 85.5635 114.872 87.6918 114.872 90.3168C114.872 92.9424 116.976 95.07 119.571 95.07Z" fill="white"/>
</g>
<g id="cool">
<path id="Vector 17" d="M182.228 184.859C182.228 199.056 160.528 232.138 154.187 241.504C153.996 241.786 153.739 242.018 153.439 242.178C153.139 242.338 152.805 242.421 152.466 242.421C152.127 242.421 151.793 242.338 151.493 242.178C151.193 242.018 150.937 241.786 150.745 241.504C144.404 232.138 122.704 199.056 122.704 184.859C122.704 180.906 123.474 176.991 124.969 173.338C126.465 169.685 128.657 166.366 131.421 163.571C134.185 160.775 137.466 158.558 141.076 157.045C144.688 155.532 148.558 154.753 152.466 154.753C156.375 154.753 160.245 155.532 163.855 157.045C167.467 158.558 170.748 160.775 173.511 163.571C176.275 166.366 178.467 169.685 179.963 173.338C181.458 176.991 182.228 180.906 182.228 184.859Z" fill="white"/>
<path id="Vector 18" d="M152.417 199.594C160.779 199.594 167.558 192.736 167.558 184.277C167.558 175.818 160.779 168.96 152.417 168.96C144.054 168.96 137.274 175.818 137.274 184.277C137.274 192.736 144.054 199.594 152.417 199.594Z" fill="#6A6464"/>
</g>
<path id="Vector 19" d="M152.205 258.803C161.866 258.803 169.697 257.265 169.697 255.37C169.697 253.473 161.866 251.936 152.205 251.936C142.545 251.936 134.713 253.473 134.713 255.37C134.713 257.265 142.545 258.803 152.205 258.803Z" fill="white"/>
<path id="Vector 20" d="M428.907 164.427L438.405 168.75C438.802 168.931 439.112 169.264 439.267 169.677C439.422 170.089 439.408 170.546 439.229 170.949L438.105 173.477C438.237 173.538 438.34 173.649 438.392 173.786C438.443 173.924 438.439 174.076 438.38 174.21L437.93 175.221C437.87 175.355 437.76 175.459 437.624 175.511C437.489 175.563 437.338 175.559 437.206 175.499L436.756 176.511C436.888 176.571 436.991 176.682 437.043 176.819C437.094 176.957 437.09 177.11 437.031 177.243L436.581 178.255C436.521 178.389 436.411 178.493 436.275 178.545C436.14 178.597 435.989 178.593 435.856 178.533L429.785 192.184C429.606 192.587 429.276 192.9 428.868 193.057C428.46 193.213 428.008 193.199 427.611 193.018L418.113 188.696C417.716 188.515 417.406 188.182 417.251 187.769C417.096 187.357 417.11 186.9 417.289 186.497L426.733 165.262C426.912 164.86 427.242 164.546 427.65 164.389C428.058 164.233 428.51 164.247 428.907 164.427Z" fill="#3F3D56"/>
<path id="Vector 21" d="M419.838 187.352L427.457 190.822C427.838 190.995 428.272 191.008 428.663 190.858C429.054 190.709 429.371 190.409 429.545 190.023L433.063 182.106L434.286 179.362L437.47 172.199C437.64 171.814 437.653 171.376 437.505 170.981C437.357 170.586 437.06 170.267 436.68 170.092L434.286 169L429.057 166.622C428.675 166.449 428.242 166.437 427.851 166.588C427.461 166.739 427.145 167.04 426.974 167.425L423.893 174.35L420.386 182.234L419.048 185.244C418.878 185.63 418.865 186.068 419.013 186.463C419.161 186.858 419.458 187.177 419.838 187.352Z" fill="#F2F2F2"/>
<path id="Vector 22" d="M421.371 190.29C421.142 190.464 420.925 190.66 420.722 190.875L397.319 183.28L395.79 176.408L386.909 177.844L388.64 190.328C388.779 191.336 389.186 192.263 389.799 192.968C390.411 193.673 391.196 194.119 392.036 194.239L419.413 198.149C419.848 199.293 420.561 200.25 421.457 200.892C422.352 201.535 423.389 201.832 424.427 201.746C425.467 201.659 426.459 201.191 427.273 200.406C428.087 199.621 428.684 198.554 428.985 197.349C429.285 196.143 429.274 194.855 428.955 193.657C428.635 192.458 428.021 191.406 427.195 190.64C426.368 189.874 425.369 189.43 424.328 189.367C423.288 189.305 422.257 189.626 421.372 190.29H421.371Z" fill="#FFB8B8"/>
<path id="Vector 23" d="M400.352 176.146L390.987 183.519C390.721 183.729 390.413 183.878 390.084 183.957C389.755 184.035 389.414 184.041 389.083 183.974C388.752 183.906 388.439 183.768 388.165 183.568C387.892 183.368 387.664 183.11 387.498 182.813L381.678 172.393C380.624 171.008 380.157 169.257 380.378 167.524C380.599 165.79 381.49 164.216 382.857 163.147C384.223 162.077 385.953 161.6 387.667 161.819C389.381 162.038 390.94 162.935 392.001 164.315L400.532 172.551C400.776 172.787 400.966 173.074 401.091 173.391C401.216 173.708 401.273 174.049 401.255 174.39C401.238 174.731 401.148 175.065 400.993 175.367C400.837 175.671 400.618 175.936 400.352 176.146Z" fill="#6C63FF"/>
<path id="Vector 24" d="M403.618 285.363H410.02L413.065 260.387L403.618 260.388L403.618 285.363Z" fill="#FFB8B8"/>
<path id="Vector 25" d="M401.007 285.211L413.613 285.211C414.668 285.211 415.713 285.421 416.688 285.829C417.663 286.238 418.549 286.836 419.295 287.591C420.041 288.346 420.632 289.241 421.036 290.228C421.44 291.214 421.648 292.27 421.648 293.337V293.602L401.007 293.602L401.007 285.211Z" fill="white"/>
<path id="Vector 26" d="M420.627 283.861L427.029 283.86L430.075 258.884H420.626L420.627 283.861Z" fill="#FFB8B8"/>
<path id="Vector 27" d="M418.995 281.746L431.601 281.746H431.602C432.656 281.746 433.701 281.956 434.677 282.365C435.651 282.773 436.537 283.371 437.283 284.126C438.029 284.88 438.62 285.776 439.024 286.762C439.428 287.748 439.636 288.805 439.636 289.872V290.136L418.995 290.137V281.746Z" fill="white"/>
<path id="Vector 28" d="M375.205 226.837C376.569 230.926 379.156 234.486 382.608 237.023C386.06 239.56 390.206 240.948 394.472 240.997L394.796 241.002C398.101 241.097 401.98 240.02 405.787 238.472C413.306 235.414 420.527 230.518 422.443 229.171L419.196 260.75L417.88 273.553C417.847 273.885 417.883 274.219 417.984 274.535C418.087 274.852 418.254 275.143 418.474 275.39C418.694 275.638 418.964 275.836 419.264 275.971C419.565 276.107 419.89 276.178 420.219 276.178H428.328C428.848 276.178 429.353 276.005 429.765 275.683C430.177 275.362 430.472 274.912 430.605 274.404L443.992 222.828C444.394 221.284 444.426 219.666 444.086 218.107C443.747 216.548 443.045 215.093 442.039 213.863C441.033 212.633 439.753 211.663 438.303 211.034C436.853 210.404 435.275 210.133 433.701 210.242L405.892 212.169L407.834 204.31L383.011 202.641L382.938 202.694C382.342 203.132 381.763 203.592 381.21 204.073C379.826 205.257 378.599 206.616 377.56 208.118C375.701 210.814 374.515 213.924 374.105 217.184C373.695 220.444 374.073 223.757 375.205 226.837Z" fill="#66648B"/>
<path id="Vector 29" d="M375.116 227.345C376.48 231.435 379.066 234.994 382.518 237.53C385.97 240.068 390.116 241.457 394.383 241.505C398.463 239.417 402.4 237.054 406.168 234.433L405.698 238.98L401.604 278.815C401.571 279.146 401.606 279.48 401.709 279.797C401.811 280.113 401.978 280.405 402.198 280.652C402.419 280.899 402.688 281.097 402.989 281.233C403.289 281.369 403.614 281.439 403.943 281.44H412.052C412.572 281.44 413.078 281.266 413.49 280.945C413.901 280.624 414.197 280.174 414.329 279.665L419.107 261.259L427.716 228.09C428.118 226.546 428.15 224.928 427.811 223.369C427.471 221.809 426.769 220.355 425.764 219.125C424.758 217.895 423.477 216.925 422.027 216.295C420.577 215.665 419 215.394 417.425 215.503L389.616 217.431L391.558 209.572L377.47 208.626C375.612 211.322 374.426 214.433 374.016 217.693C373.606 220.953 373.983 224.265 375.116 227.345Z" fill="#66648B"/>
<path id="Vector 30" d="M381.174 205.895L380.987 205.872L376.656 184.33C376.619 184.144 373.079 165.563 383.933 155.85L384.122 154.52C384.171 154.18 384.291 153.854 384.476 153.566C384.661 153.278 384.905 153.033 385.192 152.849C385.479 152.666 385.803 152.547 386.14 152.502C386.477 152.457 386.819 152.487 387.144 152.588L397.37 155.797C397.949 155.977 398.436 156.377 398.73 156.913C399.024 157.449 399.101 158.078 398.946 158.671L397.952 162.496C399.33 164.133 415.556 183.893 409.904 199.117L407.373 209.126L381.174 205.895Z" fill="#E14C43"/>
<path id="Vector 31" d="M421.606 173.569C421.474 173.829 421.362 174.099 421.271 174.377L396.321 181.389L391.825 176.939L384.298 182.925L391.5 191.586C392.083 192.285 392.873 192.776 393.753 192.982C394.634 193.189 395.557 193.101 396.384 192.732L423.336 180.697C424.25 181.339 425.335 181.684 426.449 181.687C427.562 181.689 428.649 181.349 429.566 180.711C430.483 180.073 431.187 179.168 431.583 178.116C431.979 177.064 432.049 175.914 431.784 174.821C431.518 173.728 430.93 172.742 430.098 171.995C429.265 171.248 428.227 170.775 427.122 170.639C426.017 170.503 424.898 170.711 423.912 171.234C422.926 171.757 422.122 172.572 421.606 173.569Z" fill="#FFB8B8"/>
<path id="Vector 32" d="M396.968 182.716L385.199 184.25C384.863 184.294 384.523 184.264 384.201 184.162C383.879 184.061 383.582 183.891 383.33 183.663C383.079 183.435 382.879 183.155 382.744 182.841C382.609 182.528 382.543 182.189 382.549 181.848L382.773 169.882C382.562 168.148 383.04 166.4 384.101 165.021C385.163 163.642 386.721 162.745 388.435 162.527C390.149 162.309 391.879 162.787 393.245 163.857C394.611 164.927 395.502 166.501 395.722 168.234L398.929 179.714C399.021 180.042 399.041 180.387 398.99 180.724C398.938 181.062 398.815 181.384 398.629 181.67C398.442 181.954 398.198 182.195 397.912 182.376C397.625 182.557 397.303 182.673 396.968 182.716Z" fill="#E25D55"/>
<path id="Vector 33" d="M393.656 149.664C400.738 149.664 406.48 143.856 406.48 136.692C406.48 129.528 400.738 123.72 393.656 123.72C386.573 123.72 380.831 129.528 380.831 136.692C380.831 143.856 386.573 149.664 393.656 149.664Z" fill="#FFB8B8"/>
<path id="Vector 34" d="M392.98 137.775L391.375 134.818C388.334 147.352 393.706 157.726 393.706 157.726L372.855 147.902L373.054 144.416L370.991 146.784L368.026 145.132L367.634 142.871L365.397 143.431L373.565 128.438C381.492 114.17 393.018 119.618 393.018 119.618C411.353 118.736 409.113 137.034 409.113 137.034L392.98 137.775Z" fill="#2A3B74"/>
<path id="Vector 35" d="M246.995 234.447C249.952 232.53 246.356 221.519 238.964 209.854C231.571 198.19 223.181 190.288 220.224 192.206C217.268 194.123 220.863 205.133 228.256 216.798C235.649 228.462 244.038 236.364 246.995 234.447Z" fill="#3F3D56"/>
</g>
</g>
</g>
<defs>
<linearGradient id="paint0_linear" x1="258.984" y1="24.8239" x2="55.7627" y2="333.784" gradientUnits="userSpaceOnUse">
<stop offset="0.354167" stop-color="#101440"/>
<stop offset="0.9998" stop-color="#C52323" stop-opacity="0.42"/>
<stop offset="0.9999" stop-color="#221E50" stop-opacity="0.0208333"/>
</linearGradient>
</defs>
</svg>
